<?xml version="1.0" encoding="UTF-8" standalone="no"?>
<!DOCTYPE svg PUBLIC "-//W3C//DTD SVG 1.1//EN"
 "http://www.w3.org/Graphics/SVG/1.1/DTD/svg11.dtd">
<!-- Generated by graphviz version 10.0.1 (0)
 -->
<!-- Title: instruction&#45;tree Pages: 1 -->
<svg width="966pt" height="592pt"
 viewBox="0.00 0.00 965.50 592.00" xmlns="http://www.w3.org/2000/svg" xmlns:xlink="http://www.w3.org/1999/xlink">
<g id="graph0" class="graph" transform="scale(1 1) rotate(0) translate(4 588)">
<title>instruction&#45;tree</title>
<polygon fill="white" stroke="none" points="-4,4 -4,-588 961.5,-588 961.5,4 -4,4"/>
<!-- DAT_0x016f8a -->
<g id="node1" class="node">
<title>DAT_0x016f8a</title>
<polygon fill="none" stroke="black" points="191,-84.5 191,-120.5 317,-120.5 317,-84.5 191,-84.5"/>
<text text-anchor="start" x="204.5" y="-97.45" font-family="Courier New" font-size="14.00" fill="forestgreen">DAT_0x016f8a</text>
</g>
<!-- LAB_0x01d88a -->
<g id="node2" class="node">
<title>LAB_0x01d88a</title>
<path fill="none" stroke="black" d="M12,-525.5C12,-525.5 288,-525.5 288,-525.5 294,-525.5 300,-531.5 300,-537.5 300,-537.5 300,-571.5 300,-571.5 300,-577.5 294,-583.5 288,-583.5 288,-583.5 12,-583.5 12,-583.5 6,-583.5 0,-577.5 0,-571.5 0,-571.5 0,-537.5 0,-537.5 0,-531.5 6,-525.5 12,-525.5"/>
<polygon fill="lightgrey" stroke="none" points="10,-555.5 10,-577.5 290,-577.5 290,-555.5 10,-555.5"/>
<text text-anchor="start" x="13.88" y="-561.2" font-family="Courier New" font-size="14.00">Alloc_Vector_01a (0x58) @0x01d88a</text>
<text text-anchor="start" x="13" y="-538.2" font-family="Courier New" font-size="14.00" fill="#0000ff">A &#160;&#160;&#160;&#160;&#160;&#160;</text>
<text text-anchor="start" x="79" y="-538.2" font-family="Courier New" font-size="14.00">#</text>
<text text-anchor="start" x="87.25" y="-538.2" font-family="Courier New" font-size="14.00" fill="#838b8b">0x016f8a</text>
</g>
<!-- LAB_0x01d88a&#45;&gt;DAT_0x016f8a -->
<g id="edge1" class="edge">
<title>LAB_0x01d88a&#45;&gt;DAT_0x016f8a</title>
<path fill="none" stroke="grey" d="M110.25,-525.16C99.33,-515.11 88.88,-502.82 83,-489 48.83,-408.68 12.71,-311.06 117,-168 132.38,-146.9 156.44,-132.47 180.14,-122.7"/>
<polygon fill="grey" stroke="grey" points="181.12,-126.07 189.19,-119.21 178.6,-119.54 181.12,-126.07"/>
</g>
<!-- LAB_0x002b4a -->
<g id="node3" class="node">
<title>LAB_0x002b4a</title>
<path fill="none" stroke="black" d="M104.5,-441.5C104.5,-441.5 195.5,-441.5 195.5,-441.5 201.5,-441.5 207.5,-447.5 207.5,-453.5 207.5,-453.5 207.5,-465.5 207.5,-465.5 207.5,-471.5 201.5,-477.5 195.5,-477.5 195.5,-477.5 104.5,-477.5 104.5,-477.5 98.5,-477.5 92.5,-471.5 92.5,-465.5 92.5,-465.5 92.5,-453.5 92.5,-453.5 92.5,-447.5 98.5,-441.5 104.5,-441.5"/>
<text text-anchor="middle" x="150" y="-454.45" font-family="Courier New" font-size="14.00">LAB_0x002b4a</text>
</g>
<!-- LAB_0x01d88a&#45;&gt;LAB_0x002b4a -->
<g id="edge2" class="edge">
<title>LAB_0x01d88a&#45;&gt;LAB_0x002b4a</title>
<path fill="none" stroke="green" d="M150,-525.09C150,-513.67 150,-500.53 150,-489.1"/>
<polygon fill="green" stroke="green" points="153.5,-489.45 150,-479.45 146.5,-489.45 153.5,-489.45"/>
</g>
<!-- LAB_0x004877 -->
<g id="node4" class="node">
<title>LAB_0x004877</title>
<path fill="none" stroke="black" d="M238,-430.5C238,-430.5 514,-430.5 514,-430.5 520,-430.5 526,-436.5 526,-442.5 526,-442.5 526,-476.5 526,-476.5 526,-482.5 520,-488.5 514,-488.5 514,-488.5 238,-488.5 238,-488.5 232,-488.5 226,-482.5 226,-476.5 226,-476.5 226,-442.5 226,-442.5 226,-436.5 232,-430.5 238,-430.5"/>
<polygon fill="lightgrey" stroke="none" points="236,-460.5 236,-482.5 516,-482.5 516,-460.5 236,-460.5"/>
<text text-anchor="start" x="239.88" y="-466.2" font-family="Courier New" font-size="14.00">Alloc_Vector_01a (0x41) @0x004877</text>
<text text-anchor="start" x="239" y="-443.2" font-family="Courier New" font-size="14.00" fill="#0000ff">A &#160;&#160;&#160;&#160;&#160;&#160;</text>
<text text-anchor="start" x="305" y="-443.2" font-family="Courier New" font-size="14.00">#</text>
<text text-anchor="start" x="313.25" y="-443.2" font-family="Courier New" font-size="14.00" fill="#838b8b">0x00af3a</text>
</g>
<!-- LAB_0x01d88a&#45;&gt;LAB_0x004877 -->
<g id="edge3" class="edge">
<title>LAB_0x01d88a&#45;&gt;LAB_0x004877</title>
<path fill="none" stroke="red" d="M219.04,-525.09C243.46,-515.04 271.12,-503.66 296.35,-493.28"/>
<polygon fill="red" stroke="red" points="297.68,-496.51 305.6,-489.47 295.02,-490.04 297.68,-496.51"/>
</g>
<!-- DAT_0x00af3a -->
<g id="node5" class="node">
<title>DAT_0x00af3a</title>
<polygon fill="none" stroke="black" points="126,-203.5 126,-239.5 252,-239.5 252,-203.5 126,-203.5"/>
<text text-anchor="start" x="139.5" y="-216.45" font-family="Courier New" font-size="14.00" fill="forestgreen">DAT_0x00af3a</text>
</g>
<!-- LAB_0x004877&#45;&gt;DAT_0x00af3a -->
<g id="edge4" class="edge">
<title>LAB_0x004877&#45;&gt;DAT_0x00af3a</title>
<path fill="none" stroke="grey" d="M292.18,-430.13C274.36,-420.91 257.02,-409.04 244,-394 208.28,-352.72 195.7,-287.97 191.31,-250.97"/>
<polygon fill="grey" stroke="grey" points="194.84,-251.08 190.31,-241.5 187.88,-251.81 194.84,-251.08"/>
</g>
<!-- LAB_0x02ee8d -->
<g id="node6" class="node">
<title>LAB_0x02ee8d</title>
<path fill="none" stroke="black" d="M265.5,-311.5C265.5,-311.5 442.5,-311.5 442.5,-311.5 448.5,-311.5 454.5,-317.5 454.5,-323.5 454.5,-323.5 454.5,-381.5 454.5,-381.5 454.5,-387.5 448.5,-393.5 442.5,-393.5 442.5,-393.5 265.5,-393.5 265.5,-393.5 259.5,-393.5 253.5,-387.5 253.5,-381.5 253.5,-381.5 253.5,-323.5 253.5,-323.5 253.5,-317.5 259.5,-311.5 265.5,-311.5"/>
<polygon fill="lightgrey" stroke="none" points="263.5,-365.5 263.5,-387.5 444.5,-387.5 444.5,-365.5 263.5,-365.5"/>
<text text-anchor="start" x="267.38" y="-371.2" font-family="Courier New" font-size="14.00">_11z (0x68) @0x02ee8d</text>
<text text-anchor="start" x="266.5" y="-348.2" font-family="Courier New" font-size="14.00" fill="#0000ff">A &#160;&#160;&#160;&#160;&#160;&#160;</text>
<text text-anchor="start" x="332.5" y="-348.2" font-family="Courier New" font-size="14.00">#</text>
<text text-anchor="start" x="340.75" y="-348.2" font-family="Courier New" font-size="14.00" fill="#838b8b">0x016f8a</text>
<text text-anchor="start" x="266.5" y="-324.2" font-family="Courier New" font-size="14.00" fill="#0000ff">B &#160;&#160;&#160;&#160;&#160;&#160;</text>
<text text-anchor="start" x="332.5" y="-324.2" font-family="Courier New" font-size="14.00">#</text>
<text text-anchor="start" x="340.75" y="-324.2" font-family="Courier New" font-size="14.00" fill="#838b8b">0x00af3a</text>
</g>
<!-- LAB_0x004877&#45;&gt;LAB_0x02ee8d -->
<g id="edge5" class="edge">
<title>LAB_0x004877&#45;&gt;LAB_0x02ee8d</title>
<path fill="none" stroke="green" d="M370.05,-430.09C368.42,-422.32 366.6,-413.65 364.79,-405.01"/>
<polygon fill="green" stroke="green" points="368.22,-404.31 362.75,-395.24 361.37,-405.75 368.22,-404.31"/>
</g>
<!-- LAB_0x008807 -->
<g id="node7" class="node">
<title>LAB_0x008807</title>
<path fill="none" stroke="black" d="M484.5,-334.5C484.5,-334.5 575.5,-334.5 575.5,-334.5 581.5,-334.5 587.5,-340.5 587.5,-346.5 587.5,-346.5 587.5,-358.5 587.5,-358.5 587.5,-364.5 581.5,-370.5 575.5,-370.5 575.5,-370.5 484.5,-370.5 484.5,-370.5 478.5,-370.5 472.5,-364.5 472.5,-358.5 472.5,-358.5 472.5,-346.5 472.5,-346.5 472.5,-340.5 478.5,-334.5 484.5,-334.5"/>
<text text-anchor="middle" x="530" y="-347.45" font-family="Courier New" font-size="14.00">LAB_0x008807</text>
</g>
<!-- LAB_0x004877&#45;&gt;LAB_0x008807 -->
<g id="edge6" class="edge">
<title>LAB_0x004877&#45;&gt;LAB_0x008807</title>
<path fill="none" stroke="red" d="M417.67,-430.09C441.99,-413.5 472.31,-392.83 495.32,-377.15"/>
<polygon fill="red" stroke="red" points="497.15,-380.13 503.44,-371.61 493.21,-374.35 497.15,-380.13"/>
</g>
<!-- LAB_0x02ee8d&#45;&gt;DAT_0x016f8a -->
<g id="edge7" class="edge">
<title>LAB_0x02ee8d&#45;&gt;DAT_0x016f8a</title>
<path fill="none" stroke="grey" d="M320.8,-311.14C312.79,-299.94 304.85,-287.43 299,-275 276.6,-227.42 264.06,-166.96 258.19,-132"/>
<polygon fill="grey" stroke="grey" points="261.67,-131.58 256.63,-122.26 254.75,-132.69 261.67,-131.58"/>
</g>
<!-- LAB_0x02ee8d&#45;&gt;DAT_0x00af3a -->
<g id="edge8" class="edge">
<title>LAB_0x02ee8d&#45;&gt;DAT_0x00af3a</title>
<path fill="none" stroke="grey" d="M302.25,-311.04C275.33,-290 243.33,-264.97 220.22,-246.91"/>
<polygon fill="grey" stroke="grey" points="222.43,-244.2 212.4,-240.79 218.12,-249.71 222.43,-244.2"/>
</g>
<!-- LAB_0x00b02b -->
<g id="node8" class="node">
<title>LAB_0x00b02b</title>
<path fill="none" stroke="black" d="M320.5,-203.5C320.5,-203.5 411.5,-203.5 411.5,-203.5 417.5,-203.5 423.5,-209.5 423.5,-215.5 423.5,-215.5 423.5,-227.5 423.5,-227.5 423.5,-233.5 417.5,-239.5 411.5,-239.5 411.5,-239.5 320.5,-239.5 320.5,-239.5 314.5,-239.5 308.5,-233.5 308.5,-227.5 308.5,-227.5 308.5,-215.5 308.5,-215.5 308.5,-209.5 314.5,-203.5 320.5,-203.5"/>
<text text-anchor="middle" x="366" y="-216.45" font-family="Courier New" font-size="14.00">LAB_0x00b02b</text>
</g>
<!-- LAB_0x02ee8d&#45;&gt;LAB_0x00b02b -->
<g id="edge9" class="edge">
<title>LAB_0x02ee8d&#45;&gt;LAB_0x00b02b</title>
<path fill="none" stroke="green" d="M357.76,-311.04C359.57,-291.59 361.7,-268.73 363.34,-251.11"/>
<polygon fill="green" stroke="green" points="366.8,-251.65 364.24,-241.37 359.83,-251 366.8,-251.65"/>
</g>
<!-- LAB_0x0241b1 -->
<g id="node9" class="node">
<title>LAB_0x0241b1</title>
<path fill="none" stroke="black" d="M453.5,-168.5C453.5,-168.5 630.5,-168.5 630.5,-168.5 636.5,-168.5 642.5,-174.5 642.5,-180.5 642.5,-180.5 642.5,-262.5 642.5,-262.5 642.5,-268.5 636.5,-274.5 630.5,-274.5 630.5,-274.5 453.5,-274.5 453.5,-274.5 447.5,-274.5 441.5,-268.5 441.5,-262.5 441.5,-262.5 441.5,-180.5 441.5,-180.5 441.5,-174.5 447.5,-168.5 453.5,-168.5"/>
<polygon fill="lightgrey" stroke="none" points="451.5,-246.5 451.5,-268.5 632.5,-268.5 632.5,-246.5 451.5,-246.5"/>
<text text-anchor="start" x="455.38" y="-252.2" font-family="Courier New" font-size="14.00">_30x (0x49) @0x0241b1</text>
<text text-anchor="start" x="454.5" y="-229.2" font-family="Courier New" font-size="14.00" fill="#0000ff">A &#160;&#160;&#160;&#160;&#160;&#160;</text>
<text text-anchor="start" x="520.5" y="-229.2" font-family="Courier New" font-size="14.00">#</text>
<text text-anchor="start" x="528.75" y="-229.2" font-family="Courier New" font-size="14.00" fill="#838b8b">0x016f8a</text>
<text text-anchor="start" x="454.5" y="-205.2" font-family="Courier New" font-size="14.00" fill="#0000ff">B &#160;&#160;&#160;&#160;&#160;&#160;</text>
<text text-anchor="start" x="520.5" y="-205.2" font-family="Courier New" font-size="14.00">#</text>
<text text-anchor="start" x="528.75" y="-205.2" font-family="Courier New" font-size="14.00" fill="#838b8b">0x014ec5</text>
<text text-anchor="start" x="454.5" y="-181.2" font-family="Courier New" font-size="14.00" fill="#0000ff">C &#160;&#160;&#160;&#160;&#160;&#160;</text>
<text text-anchor="start" x="520.5" y="-181.2" font-family="Courier New" font-size="14.00">#</text>
<text text-anchor="start" x="528.75" y="-181.2" font-family="Courier New" font-size="14.00" fill="#838b8b">0x01dc8b</text>
</g>
<!-- LAB_0x02ee8d&#45;&gt;LAB_0x0241b1 -->
<g id="edge10" class="edge">
<title>LAB_0x02ee8d&#45;&gt;LAB_0x0241b1</title>
<path fill="none" stroke="red" d="M412.97,-311.04C426.79,-301.55 441.79,-291.26 456.51,-281.16"/>
<polygon fill="red" stroke="red" points="458.12,-284.3 464.38,-275.76 454.16,-278.53 458.12,-284.3"/>
</g>
<!-- LAB_0x0241b1&#45;&gt;DAT_0x016f8a -->
<g id="edge11" class="edge">
<title>LAB_0x0241b1&#45;&gt;DAT_0x016f8a</title>
<path fill="none" stroke="grey" d="M441.21,-171.83C438.11,-170.51 435.04,-169.24 432,-168 385.91,-149.25 372.7,-149.16 326,-132 319.94,-129.77 313.61,-127.38 307.34,-124.95"/>
<polygon fill="grey" stroke="grey" points="308.89,-121.8 298.3,-121.43 306.34,-128.32 308.89,-121.8"/>
</g>
<!-- DAT_0x014ec5 -->
<g id="node10" class="node">
<title>DAT_0x014ec5</title>
<polygon fill="none" stroke="black" points="335,-84.5 335,-120.5 461,-120.5 461,-84.5 335,-84.5"/>
<text text-anchor="start" x="348.5" y="-97.45" font-family="Courier New" font-size="14.00" fill="forestgreen">DAT_0x014ec5</text>
</g>
<!-- LAB_0x0241b1&#45;&gt;DAT_0x014ec5 -->
<g id="edge12" class="edge">
<title>LAB_0x0241b1&#45;&gt;DAT_0x014ec5</title>
<path fill="none" stroke="grey" d="M477.58,-168.16C460.38,-154.18 442.6,-139.74 428.22,-128.05"/>
<polygon fill="grey" stroke="grey" points="430.44,-125.35 420.47,-121.76 426.02,-130.78 430.44,-125.35"/>
</g>
<!-- DAT_0x01dc8b -->
<g id="node11" class="node">
<title>DAT_0x01dc8b</title>
<polygon fill="none" stroke="black" points="479,-84.5 479,-120.5 605,-120.5 605,-84.5 479,-84.5"/>
<text text-anchor="start" x="492.5" y="-97.45" font-family="Courier New" font-size="14.00" fill="forestgreen">DAT_0x01dc8b</text>
</g>
<!-- LAB_0x0241b1&#45;&gt;DAT_0x01dc8b -->
<g id="edge13" class="edge">
<title>LAB_0x0241b1&#45;&gt;DAT_0x01dc8b</title>
<path fill="none" stroke="grey" d="M542,-168.16C542,-155.78 542,-143.03 542,-132.16"/>
<polygon fill="grey" stroke="grey" points="545.5,-132.32 542,-122.32 538.5,-132.32 545.5,-132.32"/>
</g>
<!-- LAB_0x0080aa -->
<g id="node12" class="node">
<title>LAB_0x0080aa</title>
<path fill="none" stroke="black" d="M635.5,-73.5C635.5,-73.5 812.5,-73.5 812.5,-73.5 818.5,-73.5 824.5,-79.5 824.5,-85.5 824.5,-85.5 824.5,-119.5 824.5,-119.5 824.5,-125.5 818.5,-131.5 812.5,-131.5 812.5,-131.5 635.5,-131.5 635.5,-131.5 629.5,-131.5 623.5,-125.5 623.5,-119.5 623.5,-119.5 623.5,-85.5 623.5,-85.5 623.5,-79.5 629.5,-73.5 635.5,-73.5"/>
<polygon fill="lightgrey" stroke="none" points="633.5,-103.5 633.5,-125.5 814.5,-125.5 814.5,-103.5 633.5,-103.5"/>
<text text-anchor="start" x="637.38" y="-109.2" font-family="Courier New" font-size="14.00">_01x (0x46) @0x0080aa</text>
<text text-anchor="start" x="636.5" y="-86.2" font-family="Courier New" font-size="14.00" fill="#0000ff">A &#160;&#160;&#160;&#160;&#160;&#160;</text>
<text text-anchor="start" x="702.5" y="-86.2" font-family="Courier New" font-size="14.00">#</text>
<text text-anchor="start" x="710.75" y="-86.2" font-family="Courier New" font-size="14.00" fill="#838b8b">0x004e45</text>
</g>
<!-- LAB_0x0241b1&#45;&gt;LAB_0x0080aa -->
<g id="edge14" class="edge">
<title>LAB_0x0241b1&#45;&gt;LAB_0x0080aa</title>
<path fill="none" stroke="green" d="M623.42,-168.16C639.41,-157.88 655.8,-147.34 670.59,-137.83"/>
<polygon fill="green" stroke="green" points="672.26,-140.92 678.78,-132.57 668.48,-135.03 672.26,-140.92"/>
</g>
<!-- LAB_0x01ec0e -->
<g id="node13" class="node">
<title>LAB_0x01ec0e</title>
<path fill="none" stroke="black" d="M854.5,-84.5C854.5,-84.5 945.5,-84.5 945.5,-84.5 951.5,-84.5 957.5,-90.5 957.5,-96.5 957.5,-96.5 957.5,-108.5 957.5,-108.5 957.5,-114.5 951.5,-120.5 945.5,-120.5 945.5,-120.5 854.5,-120.5 854.5,-120.5 848.5,-120.5 842.5,-114.5 842.5,-108.5 842.5,-108.5 842.5,-96.5 842.5,-96.5 842.5,-90.5 848.5,-84.5 854.5,-84.5"/>
<text text-anchor="middle" x="900" y="-97.45" font-family="Courier New" font-size="14.00">LAB_0x01ec0e</text>
</g>
<!-- LAB_0x0241b1&#45;&gt;LAB_0x01ec0e -->
<g id="edge15" class="edge">
<title>LAB_0x0241b1&#45;&gt;LAB_0x01ec0e</title>
<path fill="none" stroke="red" d="M642.93,-192.96C699.61,-176.74 771.32,-154.95 834,-132 839.64,-129.93 845.49,-127.64 851.28,-125.27"/>
<polygon fill="red" stroke="red" points="852.29,-128.64 860.16,-121.55 849.59,-122.19 852.29,-128.64"/>
</g>
<!-- DAT_0x004e45 -->
<g id="node14" class="node">
<title>DAT_0x004e45</title>
<polygon fill="none" stroke="black" points="522,-0.5 522,-36.5 648,-36.5 648,-0.5 522,-0.5"/>
<text text-anchor="start" x="535.5" y="-13.45" font-family="Courier New" font-size="14.00" fill="forestgreen">DAT_0x004e45</text>
</g>
<!-- LAB_0x0080aa&#45;&gt;DAT_0x004e45 -->
<g id="edge16" class="edge">
<title>LAB_0x0080aa&#45;&gt;DAT_0x004e45</title>
<path fill="none" stroke="grey" d="M675.77,-73.05C658.89,-63.09 640.16,-52.04 624.11,-42.57"/>
<polygon fill="grey" stroke="grey" points="626.2,-39.74 615.81,-37.68 622.65,-45.77 626.2,-39.74"/>
</g>
<!-- LAB_0x01fd99 -->
<g id="node15" class="node">
<title>LAB_0x01fd99</title>
<path fill="none" stroke="black" d="M678.5,-0.5C678.5,-0.5 769.5,-0.5 769.5,-0.5 775.5,-0.5 781.5,-6.5 781.5,-12.5 781.5,-12.5 781.5,-24.5 781.5,-24.5 781.5,-30.5 775.5,-36.5 769.5,-36.5 769.5,-36.5 678.5,-36.5 678.5,-36.5 672.5,-36.5 666.5,-30.5 666.5,-24.5 666.5,-24.5 666.5,-12.5 666.5,-12.5 666.5,-6.5 672.5,-0.5 678.5,-0.5"/>
<text text-anchor="middle" x="724" y="-13.45" font-family="Courier New" font-size="14.00">LAB_0x01fd99</text>
</g>
<!-- LAB_0x0080aa&#45;&gt;LAB_0x01fd99 -->
<g id="edge17" class="edge">
<title>LAB_0x0080aa&#45;&gt;LAB_0x01fd99</title>
<path fill="none" stroke="green" d="M724,-73.28C724,-65.06 724,-56.08 724,-47.86"/>
<polygon fill="green" stroke="green" points="727.5,-48.04 724,-38.04 720.5,-48.04 727.5,-48.04"/>
</g>
<!-- LAB_0x0292ac -->
<g id="node16" class="node">
<title>LAB_0x0292ac</title>
<path fill="none" stroke="black" d="M811.5,-0.5C811.5,-0.5 902.5,-0.5 902.5,-0.5 908.5,-0.5 914.5,-6.5 914.5,-12.5 914.5,-12.5 914.5,-24.5 914.5,-24.5 914.5,-30.5 908.5,-36.5 902.5,-36.5 902.5,-36.5 811.5,-36.5 811.5,-36.5 805.5,-36.5 799.5,-30.5 799.5,-24.5 799.5,-24.5 799.5,-12.5 799.5,-12.5 799.5,-6.5 805.5,-0.5 811.5,-0.5"/>
<text text-anchor="middle" x="857" y="-13.45" font-family="Courier New" font-size="14.00">LAB_0x0292ac</text>
</g>
<!-- LAB_0x0080aa&#45;&gt;LAB_0x0292ac -->
<g id="edge18" class="edge">
<title>LAB_0x0080aa&#45;&gt;LAB_0x0292ac</title>
<path fill="none" stroke="red" d="M770.14,-73.05C786.15,-63.18 803.89,-52.25 819.14,-42.84"/>
<polygon fill="red" stroke="red" points="820.8,-45.93 827.48,-37.7 817.13,-39.97 820.8,-45.93"/>
</g>
</g>
</svg>
